<svg xmlns="http://www.w3.org/2000/svg" xmlns:xlink="http://www.w3.org/1999/xlink" width="1300" height="1300" viewBox="0 0 1300 1300">
  <defs>
    <clipPath id="clip-Artboard_7">
      <rect width="1300" height="1300"/>
    </clipPath>
  </defs>
  <g id="Artboard_7" data-name="Artboard – 7" clip-path="url(#clip-Artboard_7)">
    <g id="Group_696" data-name="Group 696" transform="translate(394.336 -1763.267)">
      <g id="Group_692" data-name="Group 692" transform="translate(-390.336 2250.424)">
        <path id="Path_6780" data-name="Path 6780" d="M-390.336,2248.772h35.376v119.756q0,15.473,2.707,21.888a21.8,21.8,0,0,0,8.939,10.251,28.156,28.156,0,0,0,15.045,3.835,29.3,29.3,0,0,0,16.051-4.276,22.537,22.537,0,0,0,9.316-10.879q2.58-6.6,2.582-25.222V2248.772h35.376v110.41q0,27.948-3.147,38.775t-12.022,20.9a55.779,55.779,0,0,1-20.458,14.919q-11.585,4.843-26.941,4.848-20.144,0-35.061-9.255t-21.34-23.164q-6.419-13.909-6.421-47.021Z" transform="translate(390.336 -2248.772)"/>
        <path id="Path_6781" data-name="Path 6781" d="M-264.2,2248.772h35.628v63.844l50.273-63.844h42.326l-64.668,82.651,70.96,102.541h-41.8l-57.091-82.281v82.281H-264.2Z" transform="translate(428.179 -2248.772)"/>
        <path id="Path_6782" data-name="Path 6782" d="M-141.547,2248.772H-104.2q30.682,0,43.7,5.476a44.775,44.775,0,0,1,20.938,18.194q7.923,12.716,7.925,30.087,0,18.256-8.75,30.529t-26.371,18.571l43.87,82.335H-61.427l-41.643-78.432H-106.3v78.432h-35.25Zm35.25,72.389h11.046q16.815,0,23.154-4.42t6.338-14.654a17.935,17.935,0,0,0-3.137-10.544,17.406,17.406,0,0,0-8.41-6.443q-5.269-1.96-19.327-1.959H-106.3Z" transform="translate(464.975 -2248.772)"/>
        <path id="Path_6783" data-name="Path 6783" d="M-30.323,2248.772H4.927V2400.35H56.293v33.614H-30.323Z" transform="translate(498.344 -2248.772)"/>
        <path id="Path_6784" data-name="Path 6784" d="M54.851,2248.772H92.242q30.338,0,43.748,5.6a44.51,44.51,0,0,1,21.151,18.127q7.742,12.529,7.742,30.027,0,19.388-10.134,32.23t-27.508,17.876q-10.2,2.9-37.139,2.9v78.432H54.851ZM90.1,2321.162h11.2q13.219,0,18.382-1.894a16.347,16.347,0,0,0,8.12-6.253,18.336,18.336,0,0,0,2.959-10.547q0-10.737-8.31-15.664-6.043-3.662-22.41-3.663H90.1Z" transform="translate(523.897 -2248.772)"/>
      </g>
      <g id="Group_693" data-name="Group 693" transform="translate(370.168 2243.266)">
        <path id="Path_6785" data-name="Path 6785" d="M200.816,2245.887h14.066v49.867q0,6.442,1.076,9.113a8.961,8.961,0,0,0,3.554,4.269,10.8,10.8,0,0,0,5.983,1.6,11.257,11.257,0,0,0,6.383-1.781,9.269,9.269,0,0,0,3.7-4.529q1.026-2.751,1.027-10.5v-48.034h14.066v45.975q0,11.638-1.252,16.146a23.189,23.189,0,0,1-4.78,8.7,22.259,22.259,0,0,1-8.134,6.21,26.514,26.514,0,0,1-10.713,2.018,25.022,25.022,0,0,1-13.943-3.853,22.074,22.074,0,0,1-8.485-9.645q-2.553-5.794-2.552-19.581Z" transform="translate(-200.816 -2242.48)"/>
        <path id="Path_6786" data-name="Path 6786" d="M250.972,2245.887H265.14v26.583l19.99-26.583h16.83L276.246,2280.3l28.215,42.7H287.84l-22.7-34.263V2323H250.972Z" transform="translate(-185.769 -2242.48)"/>
        <path id="Path_6787" data-name="Path 6787" d="M321.018,2245.887h14.85q12.2,0,17.376,2.279a18.084,18.084,0,0,1,8.327,7.577,24.055,24.055,0,0,1,3.149,12.528,22.089,22.089,0,0,1-3.478,12.714,21.174,21.174,0,0,1-10.487,7.732L368.2,2323H352.876l-16.558-32.66h-1.283V2323H321.018Zm14.017,30.143h4.391q6.687,0,9.207-1.841t2.521-6.1a7.712,7.712,0,0,0-1.247-4.391,6.981,6.981,0,0,0-3.344-2.685q-2.1-.814-7.686-.815h-3.843Z" transform="translate(-164.754 -2242.48)"/>
        <path id="Path_6788" data-name="Path 6788" d="M419.245,2294.329h-43.9a14.89,14.89,0,0,0,15.618,13.264,17.806,17.806,0,0,0,13.165-5.608l11.514,5.66a27.584,27.584,0,0,1-10.312,9.462,31.017,31.017,0,0,1-14.268,3.066q-12.816,0-20.874-8.465t-8.06-21.206q0-13.054,8.035-21.677a26.385,26.385,0,0,1,20.148-8.623q12.866,0,20.925,8.623t8.06,22.779Zm-13.667-11.27a14.349,14.349,0,0,0-5.34-7.758,15,15,0,0,0-9.252-2.989,15.873,15.873,0,0,0-10.028,3.355q-2.709,2.1-5.014,7.392Z" transform="translate(-152.421 -2238.185)"/>
        <path id="Path_6789" data-name="Path 6789" d="M454.588,2261.67H468.2v48.86q0,14.466-5.556,21.283-7.461,9.225-22.479,9.226a37.742,37.742,0,0,1-13.465-2.1,24.123,24.123,0,0,1-9.211-6.159,25.379,25.379,0,0,1-5.556-9.882H427a12.464,12.464,0,0,0,5.156,3.643,20.492,20.492,0,0,0,7.459,1.232,18.919,18.919,0,0,0,8.86-1.782,10.49,10.49,0,0,0,4.731-4.614q1.379-2.831,1.378-9.751a22.643,22.643,0,0,1-7.56,5.426,23.066,23.066,0,0,1-8.961,1.651,24.107,24.107,0,0,1-18.521-8.283q-7.56-8.284-7.56-20.97,0-13.575,8.009-21.808a23.358,23.358,0,0,1,17.321-7.444,22.133,22.133,0,0,1,8.886,1.808,28.15,28.15,0,0,1,8.385,5.95Zm-14.168,11.9a13.913,13.913,0,0,0-10.663,4.534,16.118,16.118,0,0,0-4.206,11.4,16.338,16.338,0,0,0,4.306,11.69,14.245,14.245,0,0,0,10.812,4.562,13.678,13.678,0,0,0,10.489-4.457q4.13-4.455,4.13-11.689,0-7.129-4.155-11.587A13.992,13.992,0,0,0,440.42,2273.57Z" transform="translate(-137.478 -2238.185)"/>
        <path id="Path_6790" data-name="Path 6790" d="M471.163,2243.266a8.18,8.18,0,0,1,6.165,2.725,9.282,9.282,0,0,1,2.571,6.606,9.17,9.17,0,0,1-2.547,6.527,8.083,8.083,0,0,1-6.089,2.7,8.2,8.2,0,0,1-6.215-2.752,9.432,9.432,0,0,1-2.57-6.683,9.011,9.011,0,0,1,2.545-6.448A8.171,8.171,0,0,1,471.163,2243.266Zm-6.833,23.485H478v57.037H464.331Z" transform="translate(-122.315 -2243.266)"/>
        <path id="Path_6791" data-name="Path 6791" d="M517.511,2269.639l-8.461,8.86q-5.156-5.349-9.361-5.348a5.693,5.693,0,0,0-3.6,1.023,3.114,3.114,0,0,0-1.3,2.543,3.2,3.2,0,0,0,.826,2.123,15.28,15.28,0,0,0,4.079,2.646l5.006,2.622q7.909,4.089,10.863,8.334a17.015,17.015,0,0,1,2.952,9.961,16.81,16.81,0,0,1-5.33,12.687q-5.333,5.086-14.292,5.084a22.378,22.378,0,0,1-19.023-9.75l8.41-9.594a19.645,19.645,0,0,0,5.633,4.745,12.059,12.059,0,0,0,5.732,1.808,6.626,6.626,0,0,0,4.355-1.364,4,4,0,0,0,1.651-3.145q0-3.3-5.957-6.448l-4.606-2.412q-13.215-6.973-13.215-17.458a15.463,15.463,0,0,1,4.98-11.558,17.607,17.607,0,0,1,12.74-4.8,21.319,21.319,0,0,1,9.987,2.438A22.393,22.393,0,0,1,517.511,2269.639Z" transform="translate(-117.098 -2238.185)"/>
        <path id="Path_6792" data-name="Path 6792" d="M519.972,2245.161h13.666v21.021h8.109V2278.5h-8.109v44.718H519.972V2278.5h-7.01v-12.319h7.01Z" transform="translate(-107.169 -2242.698)"/>
        <path id="Path_6793" data-name="Path 6793" d="M595.093,2294.329h-43.9a14.89,14.89,0,0,0,15.62,13.264,17.808,17.808,0,0,0,13.165-5.608l11.513,5.66a27.584,27.584,0,0,1-10.312,9.462,31.016,31.016,0,0,1-14.266,3.066q-12.817,0-20.875-8.465t-8.06-21.206q0-13.054,8.035-21.677a26.385,26.385,0,0,1,20.149-8.623q12.864,0,20.924,8.623t8.06,22.779Zm-13.667-11.27a14.342,14.342,0,0,0-5.341-7.758,15,15,0,0,0-9.251-2.989,15.875,15.875,0,0,0-10.03,3.355q-2.707,2.1-5.014,7.392Z" transform="translate(-99.665 -2238.185)"/>
        <path id="Path_6794" data-name="Path 6794" d="M587.168,2261.67h11.714v7.182a15.152,15.152,0,0,1,5.056-6.448,11.808,11.808,0,0,1,6.907-2.2,12.334,12.334,0,0,1,5.558,1.468l-4.255,12.319a9.1,9.1,0,0,0-3.955-1.258q-3.155,0-5.331,4.09t-2.177,16.042l.049,2.778v23.067H587.168Z" transform="translate(-84.906 -2238.185)"/>
      </g>
      <g id="Group_694" data-name="Group 694" transform="translate(366.512 2375.674)">
        <path id="Path_6795" data-name="Path 6795" d="M226.239,2368.98a27.864,27.864,0,0,1,14.491,4.036,28.514,28.514,0,0,1,10.589,10.956,30.518,30.518,0,0,1,3.805,14.942,31.071,31.071,0,0,1-3.83,15.1,28.322,28.322,0,0,1-10.438,10.981,27.806,27.806,0,0,1-14.568,3.959,26.576,26.576,0,0,1-20-8.729,31.233,31.233,0,0,1,1.078-43.485A26.681,26.681,0,0,1,226.239,2368.98Zm.225,13.472a13.764,13.764,0,0,0-10.605,4.64,16.926,16.926,0,0,0-4.237,11.874q0,7.445,4.186,12.058a13.7,13.7,0,0,0,10.607,4.614,13.856,13.856,0,0,0,10.68-4.666,17.116,17.116,0,0,0,4.263-12.006q0-7.338-4.187-11.926A13.85,13.85,0,0,0,226.464,2382.452Z" transform="translate(-198.004 -2346.963)"/>
        <path id="Path_6796" data-name="Path 6796" d="M244.734,2375.529h4.856q.049-11.216.351-13.264a11.086,11.086,0,0,1,3.779-7.469q3.229-2.754,9.137-2.752a27.3,27.3,0,0,1,9.611,2.044v10.9a17.53,17.53,0,0,0-4.856-.891,4.954,4.954,0,0,0-3.5,1.047q-.8.787-.8,3.25l-.049,7.13h8.659v12.11h-8.659v44.927H249.59v-44.927h-4.856Z" transform="translate(-183.985 -2352.044)"/>
        <path id="Path_6797" data-name="Path 6797" d="M293.448,2354.666h14.015v63.118h20.424v14h-34.44Z" transform="translate(-169.37 -2351.258)"/>
        <path id="Path_6798" data-name="Path 6798" d="M381.353,2403.107h-43.9a14.89,14.89,0,0,0,15.62,13.264,17.8,17.8,0,0,0,13.165-5.609l11.514,5.662a27.589,27.589,0,0,1-10.313,9.462,31.012,31.012,0,0,1-14.266,3.067q-12.817,0-20.876-8.466t-8.06-21.206q0-13.054,8.035-21.678a26.387,26.387,0,0,1,20.149-8.623q12.864,0,20.925,8.623t8.06,22.779Zm-13.667-11.27a14.343,14.343,0,0,0-5.34-7.758,15,15,0,0,0-9.251-2.989,15.874,15.874,0,0,0-10.03,3.356q-2.707,2.1-5.014,7.392Z" transform="translate(-160.134 -2346.963)"/>
        <path id="Path_6799" data-name="Path 6799" d="M416.668,2370.448h13.667v57.037H416.668v-6.028a26.767,26.767,0,0,1-8.024,5.74,21.6,21.6,0,0,1-8.727,1.757q-10.548,0-18.251-8.571t-7.7-21.311q0-13.21,7.45-21.65t18.1-8.441a22.13,22.13,0,0,1,9.2,1.939,25.14,25.14,0,0,1,7.95,5.819ZM402.3,2382.191a13.518,13.518,0,0,0-10.527,4.692,19.413,19.413,0,0,0,.074,24.193,13.537,13.537,0,0,0,10.5,4.771,13.783,13.783,0,0,0,10.677-4.692q4.239-4.692,4.239-12.294,0-7.444-4.239-12.058A13.945,13.945,0,0,0,402.3,2382.191Z" transform="translate(-145.213 -2346.963)"/>
        <path id="Path_6800" data-name="Path 6800" d="M424.7,2370.448h11.713v7.183a15.173,15.173,0,0,1,5.056-6.448,11.818,11.818,0,0,1,6.908-2.2,12.331,12.331,0,0,1,5.556,1.467l-4.255,12.319a9.092,9.092,0,0,0-3.955-1.259q-3.153,0-5.331,4.09t-2.176,16.042l.049,2.778v23.066H424.7Z" transform="translate(-129.992 -2346.963)"/>
        <path id="Path_6801" data-name="Path 6801" d="M451.6,2370.448h13.667v5.845a32.666,32.666,0,0,1,8.421-5.708,19.558,19.558,0,0,1,7.725-1.6,18.281,18.281,0,0,1,13.746,5.924q4.748,5.033,4.749,14.889v37.691H486.392v-24.977q0-10.211-.874-13.562a9.367,9.367,0,0,0-3.047-5.105,8.273,8.273,0,0,0-5.369-1.753,9.815,9.815,0,0,0-7.116,2.906,15.745,15.745,0,0,0-4.121,8.038q-.6,2.67-.6,11.571v22.883H451.6Z" transform="translate(-121.923 -2346.963)"/>
        <path id="Path_6802" data-name="Path 6802" d="M504.242,2352.044a8.18,8.18,0,0,1,6.165,2.725,9.282,9.282,0,0,1,2.571,6.605,9.17,9.17,0,0,1-2.547,6.528,8.081,8.081,0,0,1-6.089,2.7,8.2,8.2,0,0,1-6.215-2.752,9.436,9.436,0,0,1-2.57-6.684,9.011,9.011,0,0,1,2.545-6.448A8.171,8.171,0,0,1,504.242,2352.044Zm-6.833,23.485h13.667v57.037H497.409Z" transform="translate(-108.735 -2352.044)"/>
        <path id="Path_6803" data-name="Path 6803" d="M516.255,2370.448h13.667v5.845a32.668,32.668,0,0,1,8.423-5.708,19.556,19.556,0,0,1,7.723-1.6,18.277,18.277,0,0,1,13.746,5.924q4.748,5.033,4.75,14.889v37.691H551.047v-24.977q0-10.211-.874-13.562a9.36,9.36,0,0,0-3.047-5.105,8.268,8.268,0,0,0-5.369-1.753,9.81,9.81,0,0,0-7.115,2.906,15.734,15.734,0,0,0-4.121,8.038q-.6,2.67-.6,11.571v22.883H516.255Z" transform="translate(-102.525 -2346.963)"/>
        <path id="Path_6804" data-name="Path 6804" d="M603.6,2370.448h13.616v48.86q0,14.467-5.556,21.283-7.461,9.226-22.478,9.226a37.729,37.729,0,0,1-13.466-2.1,24.1,24.1,0,0,1-9.211-6.16,25.388,25.388,0,0,1-5.556-9.88h15.067a12.461,12.461,0,0,0,5.157,3.643,20.478,20.478,0,0,0,7.458,1.233,18.918,18.918,0,0,0,8.86-1.782,10.493,10.493,0,0,0,4.732-4.614q1.377-2.832,1.377-9.752a22.643,22.643,0,0,1-7.56,5.426,23.062,23.062,0,0,1-8.961,1.651,24.109,24.109,0,0,1-18.521-8.282q-7.56-8.284-7.56-20.971,0-13.574,8.009-21.807a23.361,23.361,0,0,1,17.321-7.444,22.136,22.136,0,0,1,8.885,1.808,28.141,28.141,0,0,1,8.385,5.95Zm-14.167,11.9a13.915,13.915,0,0,0-10.663,4.534,16.117,16.117,0,0,0-4.206,11.4,16.337,16.337,0,0,0,4.306,11.69,14.244,14.244,0,0,0,10.814,4.562,13.68,13.68,0,0,0,10.487-4.456q4.13-4.455,4.13-11.689,0-7.129-4.155-11.587A13.993,13.993,0,0,0,589.428,2382.348Z" transform="translate(-89.118 -2346.963)"/>
      </g>
      <g id="Group_695" data-name="Group 695" transform="translate(370.618 2501.276)">
        <path id="Path_6805" data-name="Path 6805" d="M201.162,2446.014H216.03q12.063,0,17.4,2.333a17.942,17.942,0,0,1,8.41,7.549,24.172,24.172,0,0,1,3.08,12.5q0,8.075-4.03,13.422a20.861,20.861,0,0,1-10.938,7.445q-4.056,1.206-14.768,1.206v32.66H201.162Zm14.017,30.144h4.455q5.257,0,7.309-.79a6.55,6.55,0,0,0,3.229-2.6,7.908,7.908,0,0,0,1.176-4.393q0-4.472-3.3-6.522-2.4-1.525-8.91-1.525h-3.956Z" transform="translate(-201.162 -2442.607)"/>
        <path id="Path_6806" data-name="Path 6806" d="M240.96,2461.8h11.714v7.182a15.186,15.186,0,0,1,5.057-6.449,11.81,11.81,0,0,1,6.907-2.2,12.318,12.318,0,0,1,5.558,1.468l-4.255,12.319a9.1,9.1,0,0,0-3.955-1.258q-3.155,0-5.331,4.09t-2.178,16.042l.049,2.778v23.066H240.96Z" transform="translate(-189.222 -2438.312)"/>
        <path id="Path_6807" data-name="Path 6807" d="M294.052,2460.33a27.861,27.861,0,0,1,14.491,4.036,28.52,28.52,0,0,1,10.589,10.957,30.544,30.544,0,0,1,3.805,14.94,31.064,31.064,0,0,1-3.83,15.1,28.344,28.344,0,0,1-10.438,10.983A27.819,27.819,0,0,1,294.1,2520.3a26.578,26.578,0,0,1-20-8.729,31.234,31.234,0,0,1,1.078-43.485A26.68,26.68,0,0,1,294.052,2460.33Zm.225,13.472a13.764,13.764,0,0,0-10.605,4.64,16.925,16.925,0,0,0-4.237,11.873q0,7.445,4.186,12.057a13.7,13.7,0,0,0,10.607,4.614,13.855,13.855,0,0,0,10.68-4.666,17.106,17.106,0,0,0,4.263-12.005q0-7.338-4.187-11.925A13.85,13.85,0,0,0,294.277,2473.8Z" transform="translate(-181.765 -2438.312)"/>
        <path id="Path_6808" data-name="Path 6808" d="M313.067,2461.459H326.99l13.759,33.656,13.729-33.656h13.854L345.154,2518.5h-8.86Z" transform="translate(-167.589 -2437.973)"/>
        <path id="Path_6809" data-name="Path 6809" d="M367.037,2443.393a8.182,8.182,0,0,1,6.165,2.725,9.282,9.282,0,0,1,2.571,6.606,9.182,9.182,0,0,1-2.547,6.528,8.084,8.084,0,0,1-6.089,2.7,8.2,8.2,0,0,1-6.217-2.752,9.44,9.44,0,0,1-2.569-6.685,9.019,9.019,0,0,1,2.544-6.448A8.173,8.173,0,0,1,367.037,2443.393Zm-6.833,23.486H373.87v57.037H360.2Z" transform="translate(-154.003 -2443.393)"/>
        <path id="Path_6810" data-name="Path 6810" d="M419.825,2444.521h13.667v79.056H419.825v-6.029a26.767,26.767,0,0,1-8.024,5.741,21.6,21.6,0,0,1-8.727,1.756q-10.548,0-18.251-8.571t-7.7-21.311q0-13.21,7.45-21.65t18.1-8.44a22.123,22.123,0,0,1,9.2,1.938,25.146,25.146,0,0,1,7.949,5.819Zm-14.365,33.762a13.521,13.521,0,0,0-10.528,4.691,19.414,19.414,0,0,0,.074,24.194,13.536,13.536,0,0,0,10.5,4.77,13.781,13.781,0,0,0,10.677-4.69q4.239-4.692,4.239-12.294,0-7.444-4.239-12.058A13.944,13.944,0,0,0,405.46,2478.284Z" transform="translate(-148.371 -2443.055)"/>
        <path id="Path_6811" data-name="Path 6811" d="M485.479,2494.457h-43.9a14.892,14.892,0,0,0,15.618,13.264,17.808,17.808,0,0,0,13.167-5.609l11.513,5.662a27.585,27.585,0,0,1-10.312,9.462,31.032,31.032,0,0,1-14.268,3.067q-12.816,0-20.874-8.467t-8.06-21.206q0-13.054,8.035-21.676a26.379,26.379,0,0,1,20.148-8.623q12.866,0,20.925,8.623t8.06,22.779Zm-13.667-11.271a14.347,14.347,0,0,0-5.34-7.757,15,15,0,0,0-9.252-2.99,15.879,15.879,0,0,0-10.028,3.355q-2.708,2.1-5.014,7.392Z" transform="translate(-133 -2438.312)"/>
        <path id="Path_6812" data-name="Path 6812" d="M477.555,2461.8h11.713v7.182a15.177,15.177,0,0,1,5.057-6.449,11.81,11.81,0,0,1,6.907-2.2,12.313,12.313,0,0,1,5.556,1.468l-4.255,12.319a9.091,9.091,0,0,0-3.953-1.258q-3.155,0-5.333,4.09t-2.176,16.042l.049,2.778v23.066H477.555Z" transform="translate(-118.241 -2438.312)"/>
        <path id="Path_6813" data-name="Path 6813" d="M538.787,2469.766l-8.461,8.86q-5.158-5.347-9.363-5.347a5.689,5.689,0,0,0-3.6,1.022,3.113,3.113,0,0,0-1.3,2.543,3.2,3.2,0,0,0,.826,2.123,15.354,15.354,0,0,0,4.079,2.647l5.008,2.621q7.907,4.089,10.862,8.335a17,17,0,0,1,2.953,9.961,16.815,16.815,0,0,1-5.33,12.686q-5.333,5.086-14.294,5.085a22.38,22.38,0,0,1-19.022-9.75l8.41-9.594a19.646,19.646,0,0,0,5.632,4.743,12.062,12.062,0,0,0,5.732,1.808,6.623,6.623,0,0,0,4.355-1.363,4,4,0,0,0,1.652-3.146q0-3.3-5.958-6.448l-4.606-2.41q-13.215-6.974-13.215-17.458a15.466,15.466,0,0,1,4.98-11.56,17.613,17.613,0,0,1,12.74-4.8,21.3,21.3,0,0,1,9.988,2.438A22.384,22.384,0,0,1,538.787,2469.766Z" transform="translate(-111.165 -2438.312)"/>
      </g>
      <rect id="Rectangle_314" data-name="Rectangle 314" width="688.78" height="106.154" transform="translate(-390.336 2477.112)"/>
    </g>
  </g>
</svg>
